<?xml version="1.0" standalone="no"?>
<!DOCTYPE svg PUBLIC "-//W3C//DTD SVG 20010904//EN"
 "http://www.w3.org/TR/2001/REC-SVG-20010904/DTD/svg10.dtd">
<svg version="1.0" xmlns="http://www.w3.org/2000/svg"
 width="1024.000000pt" height="1024.000000pt" viewBox="0 0 1024.000000 1024.000000"
 preserveAspectRatio="xMidYMid meet">

<g transform="translate(0.000000,1024.000000) scale(0.100000,-0.100000)"
fill="#2A9D8F" stroke="none">
<path d="M6329 8220 c-59 -10 -96 -30 -135 -72 -51 -55 -59 -88 -59 -244 0
-139 0 -141 30 -190 39 -63 97 -96 170 -98 l54 -1 3 -240 c3 -203 6 -245 20
-271 9 -17 133 -141 275 -275 695 -659 628 -599 670 -599 21 0 49 7 62 16 51
36 51 35 51 727 l0 643 36 2 c67 5 128 53 160 127 24 55 24 273 -1 331 -20 49
-68 99 -120 127 -40 22 -46 22 -605 24 -311 0 -586 -2 -611 -7z"/>
<path d="M4880 7759 c-95 -18 -158 -62 -361 -252 -108 -100 -279 -258 -380
-352 -101 -93 -254 -235 -339 -315 -85 -80 -331 -307 -545 -505 -215 -198
-433 -400 -485 -450 -95 -90 -325 -304 -706 -657 -241 -223 -277 -263 -305
-337 -31 -81 -31 -215 0 -294 30 -76 115 -167 188 -203 114 -56 271 -42 372
34 49 37 371 336 611 568 63 61 257 243 430 404 173 162 398 373 500 470 366
348 957 902 991 929 54 42 158 52 225 22 22 -10 115 -87 205 -171 90 -84 324
-302 519 -484 468 -437 625 -583 870 -811 113 -104 254 -237 315 -295 274
-261 649 -606 691 -636 72 -51 131 -67 233 -62 105 5 179 35 245 101 152 153
150 404 -6 559 -29 29 -321 299 -648 598 -327 300 -631 579 -675 620 -44 41
-251 233 -460 426 -209 193 -546 505 -750 694 -388 360 -413 379 -525 400 -62
12 -147 11 -210 -1z"/>
<path d="M4935 6384 c-90 -23 -81 -16 -380 -299 -88 -84 -255 -242 -372 -351
-116 -110 -381 -361 -588 -559 -208 -198 -473 -449 -589 -559 -323 -304 -406
-387 -429 -431 -22 -40 -22 -41 -25 -932 -3 -985 -3 -974 60 -1103 40 -84 170
-215 248 -253 126 -61 -9 -57 2143 -57 2186 0 2018 -5 2161 67 139 70 254 220
286 373 8 40 10 303 8 955 l-3 900 -27 46 c-15 25 -83 97 -151 160 -68 63
-231 215 -363 339 -221 209 -370 347 -835 780 -302 281 -749 700 -849 796 -52
50 -110 98 -127 108 -34 17 -133 29 -168 20z m-150 -1984 c73 -35 74 -40 77
-361 4 -399 29 -373 -357 -377 -302 -3 -317 0 -362 67 -23 33 -23 40 -23 310
0 401 -19 381 364 381 238 0 263 -2 301 -20z m1018 6 c18 -7 45 -28 60 -45
l27 -33 0 -287 c0 -402 21 -380 -358 -380 -285 -1 -322 5 -358 58 l-24 36 0
278 c0 300 4 328 54 360 35 24 49 25 314 26 193 1 260 -2 285 -13z m-1001
-1083 c54 -27 57 -46 58 -352 2 -311 0 -318 -64 -357 -28 -17 -54 -19 -301
-19 -394 0 -375 -19 -375 378 0 218 3 275 15 301 28 59 37 61 305 66 273 6
323 3 362 -17z m1032 -4 c54 -42 56 -55 56 -351 0 -395 22 -373 -370 -373
-306 0 -310 1 -350 68 -18 30 -20 52 -20 305 0 299 4 321 58 354 24 15 61 17
313 18 275 0 287 -1 313 -21z"/>
</g>
</svg>
